<mxfile host="app.diagrams.net" agent="Mozilla/5.0 (Windows NT 10.0; Win64; x64) AppleWebKit/537.36 (KHTML, like Gecko) Chrome/136.0.0.0 Safari/537.36" version="27.0.9">
  <diagram name="Page-1" id="H_OB9Ypu2rArDPH505u2">
    <mxGraphModel dx="693" dy="421" grid="0" gridSize="10" guides="1" tooltips="1" connect="1" arrows="1" fold="1" page="0" pageScale="1" pageWidth="850" pageHeight="1100" math="0" shadow="0">
      <root>
        <mxCell id="0" />
        <mxCell id="1" parent="0" />
        <mxCell id="p4bmyR_yjXDilu4bV2po-7" style="edgeStyle=orthogonalEdgeStyle;rounded=0;orthogonalLoop=1;jettySize=auto;html=1;exitX=0;exitY=0.75;exitDx=0;exitDy=0;entryX=1;entryY=0.75;entryDx=0;entryDy=0;" edge="1" parent="1" source="p4bmyR_yjXDilu4bV2po-4" target="p4bmyR_yjXDilu4bV2po-5">
          <mxGeometry relative="1" as="geometry" />
        </mxCell>
        <mxCell id="p4bmyR_yjXDilu4bV2po-11" value="提交违规者数据&lt;div&gt;实时传输视频流&lt;/div&gt;" style="edgeLabel;html=1;align=center;verticalAlign=middle;resizable=0;points=[];" vertex="1" connectable="0" parent="p4bmyR_yjXDilu4bV2po-7">
          <mxGeometry x="0.0325" y="-2" relative="1" as="geometry">
            <mxPoint y="17" as="offset" />
          </mxGeometry>
        </mxCell>
        <mxCell id="p4bmyR_yjXDilu4bV2po-4" value="监控子节点" style="rounded=0;whiteSpace=wrap;html=1;" vertex="1" parent="1">
          <mxGeometry x="520" y="250" width="120" height="60" as="geometry" />
        </mxCell>
        <mxCell id="p4bmyR_yjXDilu4bV2po-6" style="edgeStyle=orthogonalEdgeStyle;rounded=0;orthogonalLoop=1;jettySize=auto;html=1;exitX=1;exitY=0.25;exitDx=0;exitDy=0;entryX=0;entryY=0.25;entryDx=0;entryDy=0;" edge="1" parent="1" source="p4bmyR_yjXDilu4bV2po-5" target="p4bmyR_yjXDilu4bV2po-4">
          <mxGeometry relative="1" as="geometry" />
        </mxCell>
        <mxCell id="p4bmyR_yjXDilu4bV2po-8" value="分发策略与指令" style="edgeLabel;html=1;align=center;verticalAlign=middle;resizable=0;points=[];" vertex="1" connectable="0" parent="p4bmyR_yjXDilu4bV2po-6">
          <mxGeometry x="-0.169" y="3" relative="1" as="geometry">
            <mxPoint x="10" y="-12" as="offset" />
          </mxGeometry>
        </mxCell>
        <mxCell id="p4bmyR_yjXDilu4bV2po-16" style="edgeStyle=orthogonalEdgeStyle;rounded=0;orthogonalLoop=1;jettySize=auto;html=1;exitX=0.25;exitY=1;exitDx=0;exitDy=0;entryX=0.25;entryY=0;entryDx=0;entryDy=0;" edge="1" parent="1" source="p4bmyR_yjXDilu4bV2po-5" target="p4bmyR_yjXDilu4bV2po-15">
          <mxGeometry relative="1" as="geometry" />
        </mxCell>
        <mxCell id="p4bmyR_yjXDilu4bV2po-18" style="edgeStyle=orthogonalEdgeStyle;rounded=0;orthogonalLoop=1;jettySize=auto;html=1;exitX=0;exitY=0.75;exitDx=0;exitDy=0;entryX=1;entryY=0.75;entryDx=0;entryDy=0;" edge="1" parent="1" source="p4bmyR_yjXDilu4bV2po-5" target="p4bmyR_yjXDilu4bV2po-12">
          <mxGeometry relative="1" as="geometry" />
        </mxCell>
        <mxCell id="p4bmyR_yjXDilu4bV2po-19" value="返回违规者数据与视频流" style="edgeLabel;html=1;align=center;verticalAlign=middle;resizable=0;points=[];" vertex="1" connectable="0" parent="p4bmyR_yjXDilu4bV2po-18">
          <mxGeometry x="0.1283" y="2" relative="1" as="geometry">
            <mxPoint x="5" y="13" as="offset" />
          </mxGeometry>
        </mxCell>
        <mxCell id="p4bmyR_yjXDilu4bV2po-5" value="中继节点" style="rounded=0;whiteSpace=wrap;html=1;" vertex="1" parent="1">
          <mxGeometry x="280" y="250" width="120" height="60" as="geometry" />
        </mxCell>
        <mxCell id="p4bmyR_yjXDilu4bV2po-13" style="edgeStyle=orthogonalEdgeStyle;rounded=0;orthogonalLoop=1;jettySize=auto;html=1;exitX=1;exitY=0.25;exitDx=0;exitDy=0;entryX=0;entryY=0.25;entryDx=0;entryDy=0;" edge="1" parent="1" source="p4bmyR_yjXDilu4bV2po-12" target="p4bmyR_yjXDilu4bV2po-5">
          <mxGeometry relative="1" as="geometry" />
        </mxCell>
        <mxCell id="p4bmyR_yjXDilu4bV2po-14" value="向对应目标分发策略与指令" style="edgeLabel;html=1;align=center;verticalAlign=middle;resizable=0;points=[];" vertex="1" connectable="0" parent="p4bmyR_yjXDilu4bV2po-13">
          <mxGeometry x="0.2183" y="-3" relative="1" as="geometry">
            <mxPoint x="-21" y="-18" as="offset" />
          </mxGeometry>
        </mxCell>
        <mxCell id="p4bmyR_yjXDilu4bV2po-12" value="中央管理节点" style="rounded=0;whiteSpace=wrap;html=1;" vertex="1" parent="1">
          <mxGeometry y="250" width="120" height="60" as="geometry" />
        </mxCell>
        <mxCell id="p4bmyR_yjXDilu4bV2po-17" style="edgeStyle=orthogonalEdgeStyle;rounded=0;orthogonalLoop=1;jettySize=auto;html=1;exitX=0.75;exitY=0;exitDx=0;exitDy=0;entryX=0.75;entryY=1;entryDx=0;entryDy=0;" edge="1" parent="1" source="p4bmyR_yjXDilu4bV2po-15" target="p4bmyR_yjXDilu4bV2po-5">
          <mxGeometry relative="1" as="geometry" />
        </mxCell>
        <mxCell id="p4bmyR_yjXDilu4bV2po-15" value="静态路由表（寻址）" style="rounded=0;whiteSpace=wrap;html=1;" vertex="1" parent="1">
          <mxGeometry x="280" y="330" width="120" height="60" as="geometry" />
        </mxCell>
      </root>
    </mxGraphModel>
  </diagram>
</mxfile>
